<?xml version="1.0" encoding="UTF-8"?><svg id="Layer_2" xmlns="http://www.w3.org/2000/svg" width="16" height="16" viewBox="0 0 2000 2000"><defs><style>.cls-1{fill:#ffffff;}.cls-2{fill:#000000;}</style></defs><path class="cls-1" d="M1999.5,1000c0,276.004-111.873,525.879-292.747,706.753-180.874,180.874-430.749,292.747-706.753,292.747s-525.879-111.873-706.753-292.747C112.373,1525.879.5,1276.004.5,1000S112.373,474.121,293.247,293.247C474.121,112.373,723.996.5,1000,.5s525.879,111.873,706.753,292.747c180.874,180.874,292.747,430.749,292.747,706.753Z"/><path class="cls-2" d="M1507.166,419.563c2.171.888,4.34,1.783,6.51,2.673s4.342,1.777,6.52,2.649c3.003,1.202,6.018,2.377,9.029,3.56s6.019,2.374,9.009,3.607c1.868.771,2.866,1.502,3.14,2.46s-.176,2.145-1.202,3.826c-1.628,2.667-3.235,5.347-4.815,8.044s-3.133,5.408-4.651,8.139c-.647,1.164-1.217,1.932-1.93,2.163s-1.567-.074-2.783-1.059c-4.216-3.414-8.476-6.775-12.749-10.118s-8.562-6.669-12.836-10.011c-.324-.254-.668-.483-1.103-.761s-.961-.608-1.649-1.061c.289,2.217.548,4.253.799,6.196s.494,3.794.752,5.643c.531,3.806,1.076,7.61,1.62,11.415s1.085,7.609,1.61,11.416c.273,1.981.284,3.117-.254,3.756s-1.627.784-3.553.781c-3.079-.005-6.158-.043-9.237-.069s-6.158-.038-9.236.011c-1.474.024-2.562-.196-3.223-.814s-.896-1.636-.663-3.209c.661-4.455,1.306-8.913,1.943-13.372.637-4.459,1.265-8.919,1.893-13.379.173-1.23.322-2.464.374-3.776s.009-2.701-.202-4.241c-1.044.784-2.096,1.558-3.143,2.338s-2.09,1.565-3.116,2.372c-3.622,2.849-7.245,5.698-10.86,8.556s-7.223,5.725-10.817,8.609c-.758.608-1.433.971-2.05.954s-1.177-.415-1.703-1.329c-1.865-3.233-3.743-6.46-5.596-9.7s-3.68-6.494-5.444-9.782c-.172-.321-.012-1.018.296-1.68s.763-1.288,1.181-1.468c3.834-1.643,7.694-3.223,11.563-4.784s7.747-3.101,11.615-4.663c1.641-.663,3.278-1.334,4.914-2.007s3.272-1.349,4.909-2.021c-.01-.159-.021-.317-.031-.476s-.021-.317-.031-.476c-.97-.406-1.939-.817-2.908-1.226s-1.94-.813-2.916-1.206c-4.329-1.742-8.657-3.486-12.987-5.225s-8.662-3.472-13-5.193c-1.734-.688-2.648-1.165-2.895-1.874s.172-1.652,1.105-3.273c1.614-2.806,3.239-5.607,4.84-8.422s3.178-5.641,4.696-8.499c.755-1.422,1.489-2.144,2.331-2.274s1.791.334,2.977,1.286c4.149,3.327,8.324,6.62,12.509,9.902s8.379,6.551,12.567,9.829c.285.223.596.413,1.013.654s.942.534,1.653.961c-.146-1.454-.256-2.734-.368-3.925s-.225-2.292-.377-3.389c-.646-4.68-1.296-9.36-1.955-14.038-.659-4.678-1.328-9.355-2.011-14.03-.191-1.309-.049-2.206.472-2.769s1.421-.792,2.746-.765c3.188.064,6.377.08,9.566.081s6.379-.013,9.568-.008c2.01.003,3.134.134,3.684.778s.523,1.801.231,3.856c-.549,3.863-1.116,7.723-1.684,11.583s-1.137,7.72-1.69,11.582c-.251,1.752-.481,3.507-.705,5.263s-.443,3.513-.671,5.268c.138.08.276.16.413.241s.276.16.413.241c1.703-1.325,3.412-2.643,5.117-3.966s3.407-2.649,5.097-3.99c2.836-2.25,5.659-4.517,8.484-6.781s5.652-4.526,8.495-6.766c.975-.768,1.864-1.192,2.69-1.089s1.59.732,2.315,2.071c1.566,2.892,3.203,5.745,4.863,8.586s3.343,5.669,5.001,8.511c.636,1.091.972,2.009.791,2.796s-.879,1.442-2.309,2.007c-4.998,1.973-9.973,4-14.942,6.047s-9.929,4.112-14.896,6.161c-.376.155-.738.342-1.097.538s-.714.4-1.075.589c.009.16.018.321.027.481s.018.321.027.481Z"/><path class="cls-2" d="M1041.82,792.914c-28.596-3.668-57.368-6.932-86.187-10.927-2.579,18.605-4.998,36.053-7.425,53.564-2.427,17.511-4.864,35.086-7.478,53.947,26.643,3.693,52.521,7.003,77.967,10.421,25.446,3.418,50.459,6.945,75.372,11.072,48.189,7.983,89.266,25.403,123.028,52.067,33.761,26.665,60.207,62.574,79.133,107.535,4.862,11.549,8.302,23.698,11.467,36.41,3.165,12.713,6.056,25.99,9.82,39.798-7.309-.661-13.01-1.092-17.894-1.498-4.885-.406-8.953-.786-12.997-1.345-63.065-8.717-126.152-17.283-189.213-26.027s-126.095-17.667-189.053-27.098c-11.025-1.651-19.317-.998-26.379,2.258-7.062,3.256-12.894,9.114-18.997,17.871-39.315,56.414-78.937,112.614-118.655,168.747s-79.531,112.2-119.23,168.347c-2.893,4.092-5.674,8.263-8.646,12.787-2.971,4.524-6.133,9.4-9.786,14.902,5.065,1.045,9.259,2.015,13.032,2.838,3.773.823,7.124,1.5,10.505,1.959,69.233,9.4,138.344,20.903,207.534,31.077,69.19,10.174,138.459,19.019,208.007,23.103,98.363,5.776,187.458-28.393,254.686-88.878,67.228-60.486,112.588-147.288,123.48-246.78,9.972-91.079-17.549-179.956-70.923-250.725-53.374-70.768-132.601-123.428-226.042-142.075-28.112-5.61-56.531-9.682-85.127-13.35ZM1232.453,1328.12c-13.269,17.98-29.203,33.97-47.243,48.345-24.313,19.372-50.449,34.816-78.277,44.666-27.829,9.85-57.35,14.106-88.434,11.101-41.433-4.004-82.72-9.513-124.512-15.526-41.792-6.013-84.088-12.531-127.54-18.554,21.306-30.126,42.126-59.709,62.827-88.93,20.701-29.221,41.285-58.08,62.117-86.758,1.877-2.584,5.467-4.774,9.428-6.206,3.961-1.432,8.293-2.105,11.652-1.651,56.919,7.675,113.81,15.551,170.688,23.528,56.878,7.977,113.742,16.056,170.605,24.135,1.392.198,2.71.918,4.263,1.925,1.553,1.007,3.342,2.3,5.677,3.644-7.379,22.332-17.983,42.302-31.252,60.282Z"/><path class="cls-2" d="M615.003,1005.078c24.054,45.038,58.4,85.344,102.172,121.534,10.9-15.419,21.354-30.207,31.645-44.764,10.291-14.557,20.418-28.883,30.663-43.376-4.154-4.275-7.856-8.03-11.302-11.554-3.446-3.523-6.636-6.815-9.765-10.165-36.514-39.089-60.391-81.504-70.647-126.661-10.256-45.157-6.891-93.054,11.08-143.108,18.195-50.678,46.39-92.112,83.484-121.261,37.093-29.149,83.085-46.013,136.873-47.552,45.895-1.313,91.942,2.692,138.899,8.266,46.958,5.574,94.826,12.717,144.365,17.683-12.147,18.009-22.982,34.073-33.247,49.292-10.265,15.219-19.961,29.595-29.831,44.227,16.826,5.633,32.485,11.1,47.641,16.201,15.156,5.101,29.808,9.835,44.619,14.004,3.333.938,8.093.536,12.501-.763,4.408-1.299,8.463-3.495,10.388-6.145,23.006-31.683,45.734-63.568,68.78-96.125,23.046-32.556,46.41-65.784,70.69-100.151-68.39-9.48-135.13-18.77-201.052-27.923-65.922-9.153-131.025-18.169-196.14-27.102-117.158-16.073-225.519,21.092-303.19,91.882-77.671,70.79-124.652,175.206-119.051,293.633,2.607,55.117,16.37,104.887,40.424,149.925Z"/></svg>