<svg width="38" height="38" viewBox="0 0 38 38" fill="none" xmlns="http://www.w3.org/2000/svg">
<path d="M33.1643 19.226H37.5055" stroke="white" stroke-width="2.31325"/>
<path d="M0 19.226H23.9113" stroke="white" stroke-width="2.31325"/>
<path d="M14.5427 6.86554H37.5055" stroke="white" stroke-width="2.31325"/>
<path d="M0 6.86554H5.30506" stroke="white" stroke-width="2.31325"/>
<path d="M21.066 31.5865H37.5056" stroke="white" stroke-width="2.31325"/>
<path d="M0 31.5865H11.813" stroke="white" stroke-width="2.31325"/>
<path d="M9.92387 11.253C12.479 11.253 14.5504 9.18165 14.5504 6.62651C14.5504 4.07136 12.479 2 9.92387 2C7.36872 2 5.29736 4.07136 5.29736 6.62651C5.29736 9.18165 7.36872 11.253 9.92387 11.253Z" stroke="white" stroke-width="2.31325"/>
<path d="M28.5378 23.8525C31.093 23.8525 33.1643 21.7811 33.1643 19.226C33.1643 16.6708 31.093 14.5995 28.5378 14.5995C25.9827 14.5995 23.9113 16.6708 23.9113 19.226C23.9113 21.7811 25.9827 23.8525 28.5378 23.8525Z" stroke="white" stroke-width="2.31325"/>
<path d="M16.4395 36.213C18.9946 36.213 21.066 34.1416 21.066 31.5865C21.066 29.0313 18.9946 26.96 16.4395 26.96C13.8843 26.96 11.813 29.0313 11.813 31.5865C11.813 34.1416 13.8843 36.213 16.4395 36.213Z" stroke="white" stroke-width="2.31325"/>
</svg>
