<svg width="52" height="52" viewBox="0 0 52 52" fill="none" xmlns="http://www.w3.org/2000/svg">
<path d="M38.4711 20.1951C38.3231 19.6461 38.0339 19.1455 37.6324 18.743C37.2308 18.3405 36.7308 18.0502 36.1821 17.901C34.1477 17.3424 26.009 17.3333 26.009 17.3333C26.009 17.3333 17.8716 17.3242 15.8359 17.8581C15.2876 18.0142 14.7886 18.3086 14.3869 18.7131C13.9851 19.1175 13.6941 19.6185 13.5417 20.1679C13.0052 22.2022 13 26.4216 13 26.4216C13 26.4216 12.9948 30.6618 13.5274 32.6754C13.8262 33.7887 14.7031 34.6682 15.8177 34.9683C17.8729 35.5269 25.9895 35.536 25.9895 35.536C25.9895 35.536 34.1283 35.5451 36.1626 35.0125C36.7115 34.8635 37.2119 34.5739 37.6145 34.1722C38.0171 33.7705 38.3079 33.2707 38.4581 32.7222C38.9959 30.6891 38.9998 26.471 38.9998 26.471C38.9998 26.471 39.0258 22.2295 38.4711 20.1951ZM23.4056 30.3306L23.4121 22.5361L30.1765 26.4398L23.4056 30.3306Z" fill="#121212"/>
</svg>
