<svg width="52" height="52" viewBox="0 0 52 52" fill="none" xmlns="http://www.w3.org/2000/svg">
<path fill-rule="evenodd" clip-rule="evenodd" d="M25.9885 13C18.8448 13 13 18.85 13 26C13 33.15 18.8448 39 25.9885 39C33.1321 39 38.9769 33.15 38.9769 26C38.9769 18.85 33.197 13 25.9885 13ZM31.9631 31.785C31.7034 32.175 31.2488 32.305 30.8591 32.045C27.8068 30.16 23.9752 29.77 19.4293 30.81C18.9747 30.94 18.585 30.615 18.4552 30.225C18.3253 29.77 18.65 29.38 19.0396 29.25C23.9752 28.145 28.2614 28.6 31.6384 30.68C32.093 30.875 32.158 31.395 31.9631 31.785ZM33.5218 28.21C33.1971 28.665 32.6126 28.86 32.158 28.535C28.6511 26.39 23.3258 25.74 19.2345 27.04C18.7149 27.17 18.1304 26.91 18.0006 26.39C17.8707 25.87 18.1304 25.285 18.65 25.155C23.3908 23.725 29.2356 24.44 33.262 26.91C33.6516 27.105 33.8465 27.755 33.5218 28.21ZM33.6516 24.57C29.4953 22.1 22.5465 21.84 18.585 23.075C17.9356 23.27 17.2862 22.88 17.0914 22.295C16.8965 21.645 17.2862 20.995 17.8707 20.8C22.4816 19.435 30.0798 19.695 34.8855 22.555C35.47 22.88 35.6649 23.66 35.3401 24.245C35.0154 24.7 34.2361 24.895 33.6516 24.57Z" fill="#121212"/>
</svg>
