<svg width="52" height="52" viewBox="0 0 52 52" fill="none" xmlns="http://www.w3.org/2000/svg">
<path d="M33.2118 36.8334H18.7881C16.795 36.8334 15.1666 35.2051 15.1666 33.2119V18.7882C15.1666 16.7951 16.795 15.1667 18.7881 15.1667H33.2118C35.205 15.1667 36.8333 16.7951 36.8333 18.7882V33.2119C36.8333 35.214 35.2139 36.8334 33.2118 36.8334Z" fill="#121212"/>
<path d="M26.0044 31.5656C24.5184 31.5656 23.1214 30.9873 22.0715 29.9373C21.0215 28.8873 20.4431 27.4903 20.4431 26.0044C20.4431 24.5184 21.0215 23.1214 22.0715 22.0715C23.1214 21.0215 24.5184 20.4431 26.0044 20.4431C27.4903 20.4431 28.8873 21.0215 29.9373 22.0715C30.9873 23.1214 31.5656 24.5184 31.5656 26.0044C31.5656 27.4903 30.9873 28.8873 29.9373 29.9373C28.8784 30.9873 27.4903 31.5656 26.0044 31.5656ZM26.0044 21.6266C23.593 21.6266 21.6265 23.5841 21.6265 26.0044C21.6265 28.4157 23.5841 30.3822 26.0044 30.3822C28.4157 30.3822 30.3822 28.4246 30.3822 26.0044C30.3733 23.593 28.4157 21.6266 26.0044 21.6266Z" fill="white"/>
<path d="M32.6498 20.2608C33.2395 20.2608 33.7176 19.7828 33.7176 19.193C33.7176 18.6033 33.2395 18.1252 32.6498 18.1252C32.0601 18.1252 31.582 18.6033 31.582 19.193C31.582 19.7828 32.0601 20.2608 32.6498 20.2608Z" fill="white"/>
</svg>
