<svg width="52" height="52" viewBox="0 0 52 52" fill="none" xmlns="http://www.w3.org/2000/svg">
<path d="M13.0001 38.037L14.8656 31.1009C13.3611 28.3989 12.8832 25.2459 13.5194 22.2205C14.1555 19.1951 15.8632 16.5002 18.3291 14.6303C20.7949 12.7604 23.8534 11.841 26.9434 12.0408C30.0335 12.2405 32.9477 13.5461 35.1514 15.7178C37.355 17.8895 38.7003 20.7818 38.9404 23.8639C39.1804 26.9459 38.2992 30.011 36.4583 32.4968C34.6173 34.9825 31.9403 36.7221 28.9183 37.3963C25.8964 38.0705 22.7322 37.6342 20.0065 36.1673L13.0001 38.037ZM20.3444 33.5718L20.7777 33.8284C22.752 34.9967 25.0579 35.4801 27.3362 35.2034C29.6144 34.9267 31.737 33.9054 33.3731 32.2986C35.0092 30.6918 36.067 28.5899 36.3815 26.3203C36.6961 24.0506 36.2498 21.7409 35.1122 19.7509C33.9746 17.761 32.2096 16.2026 30.0923 15.3187C27.9749 14.4347 25.6241 14.2749 23.4062 14.864C21.1884 15.4532 19.228 16.7582 17.8306 18.5758C16.4332 20.3934 15.6774 22.6214 15.6808 24.9126C15.6789 26.8124 16.2052 28.6754 17.201 30.2943L17.4728 30.7416L16.4299 34.6129L20.3444 33.5718Z" fill="#121212"/>
<path fill-rule="evenodd" clip-rule="evenodd" d="M30.8611 26.6937C30.6071 26.4892 30.3097 26.3452 29.9915 26.2728C29.6733 26.2004 29.3428 26.2014 29.0251 26.2758C28.5477 26.4738 28.2392 27.2216 27.9308 27.5956C27.8657 27.6852 27.7702 27.7481 27.662 27.7724C27.5538 27.7967 27.4405 27.7807 27.3432 27.7276C25.5955 27.0442 24.1306 25.791 23.1864 24.1715C23.1059 24.0704 23.0677 23.9421 23.0801 23.8136C23.0924 23.685 23.1542 23.5662 23.2525 23.4823C23.5965 23.1423 23.8491 22.7211 23.9869 22.2578C24.0175 21.7468 23.9002 21.2377 23.6491 20.7914C23.4549 20.1657 23.0854 19.6085 22.5842 19.1857C22.3256 19.0696 22.039 19.0307 21.7588 19.0736C21.4786 19.1165 21.2169 19.2395 21.0051 19.4276C20.6375 19.7443 20.3458 20.1392 20.1513 20.5833C19.9568 21.0274 19.8646 21.5095 19.8815 21.9939C19.8826 22.2659 19.9171 22.5368 19.9843 22.8004C20.1548 23.4338 20.4171 24.039 20.7628 24.5968C21.0122 25.024 21.2843 25.4376 21.578 25.8359C22.5324 27.1439 23.7321 28.2545 25.1106 29.106C25.8023 29.5387 26.5416 29.8905 27.3139 30.1545C28.1161 30.5175 29.0018 30.6569 29.877 30.5577C30.3757 30.4824 30.8481 30.2858 31.2528 29.9854C31.6575 29.6849 31.982 29.2898 32.1978 28.8347C32.3246 28.5598 32.3631 28.2525 32.308 27.9549C32.1758 27.3463 31.3605 26.987 30.8611 26.6937Z" fill="#121212"/>
</svg>
