<svg width="52" height="52" viewBox="0 0 52 52" fill="none" xmlns="http://www.w3.org/2000/svg">
<path d="M25.9996 13C18.6776 13 13 18.3656 13 25.6097C13 29.3991 14.5535 32.675 17.0819 34.9369C17.2931 35.1254 17.4231 35.3919 17.4296 35.6779L17.5011 37.9918C17.5063 38.1621 17.5533 38.3284 17.6378 38.4763C17.7224 38.6242 17.842 38.749 17.9861 38.8398C18.1302 38.9306 18.2944 38.9847 18.4643 38.9972C18.6341 39.0097 18.8045 38.9803 18.9603 38.9115L21.5408 37.7741C21.7585 37.6766 22.0055 37.6603 22.2362 37.7221C23.4225 38.0471 24.6834 38.2226 25.9996 38.2226C33.3217 38.2226 38.9993 32.857 38.9993 25.6129C38.9993 18.3689 33.3217 13 25.9996 13Z" fill="#121212"/>
<path d="M18.1934 29.2983L22.012 23.2405C22.1557 23.0124 22.345 22.8166 22.5682 22.6654C22.7913 22.5142 23.0434 22.4109 23.3085 22.362C23.5735 22.3132 23.8459 22.3198 24.1083 22.3815C24.3706 22.4432 24.6174 22.5586 24.8329 22.7205L27.8716 24.9987C28.0072 25.1002 28.1723 25.1549 28.3417 25.1543C28.5112 25.1537 28.6759 25.0979 28.8108 24.9954L32.9122 21.882C33.4582 21.466 34.1732 22.1225 33.8092 22.7042L29.9873 28.7588C29.8436 28.9869 29.6543 29.1827 29.4311 29.3339C29.208 29.4851 28.9559 29.5884 28.6908 29.6372C28.4257 29.6861 28.1534 29.6795 27.891 29.6178C27.6286 29.5561 27.3819 29.4407 27.1664 29.2788L24.1277 27.0006C23.992 26.8991 23.827 26.8444 23.6575 26.845C23.4881 26.8456 23.3234 26.9014 23.1885 27.0039L19.0871 30.1173C18.5411 30.5333 17.8261 29.88 18.1934 29.2983Z" fill="white"/>
</svg>
