<svg width="24" height="24" viewBox="0 0 24 24" fill="none" xmlns="http://www.w3.org/2000/svg">
<path d="M5.50649 2H3C2.44772 2 2 2.44771 2 3V3.24719C2 3.79948 2.44772 4.24719 3 4.24719H4.6403L7.02853 14.5674C7.41987 16.2585 8.87328 17.4614 10.56 17.5044V17.5056H17.4175C19.1259 17.5056 20.5856 16.2432 20.8738 14.5166L21.9744 7.92121C22.1577 6.82311 21.3328 5.82022 20.2463 5.82022H7.25673L6.57266 2.86418C6.45544 2.35763 6.01421 2 5.50649 2Z" fill="white"/>
<path d="M10.7662 20.2022C10.7662 21.1951 9.98126 22 9.01297 22C8.04468 22 7.25973 21.1951 7.25973 20.2022C7.25973 19.2094 8.04468 18.4045 9.01297 18.4045C9.98126 18.4045 10.7662 19.2094 10.7662 20.2022Z" fill="white"/>
<path d="M20.4091 20.2022C20.4091 21.1951 19.6241 22 18.6558 22C17.6875 22 16.9026 21.1951 16.9026 20.2022C16.9026 19.2094 17.6875 18.4045 18.6558 18.4045C19.6241 18.4045 20.4091 19.2094 20.4091 20.2022Z" fill="white"/>
</svg>
