<svg width="52" height="52" viewBox="0 0 52 52" fill="none" xmlns="http://www.w3.org/2000/svg">
<path d="M21.6311 15.0466L25.472 14.1987H26.9493L31.0857 16.177L33.1538 20.4161V23.5248L35.8129 23.2422V24.09V25.5031L34.0402 26.0683L33.4493 26.9161L34.9266 29.7422L38.7675 31.7205L37.8811 32.8509L35.222 33.6987L34.6311 34.8292L34.0402 35.677H30.7902L29.3129 36.2422L26.0629 37.9379L23.9947 37.3726L21.6311 36.2422L19.8584 35.677H17.4947L16.6084 35.1118L15.722 33.6987L14.2447 33.4161L13.0629 32.5683V31.7205L14.5402 30.8726L17.1993 28.8944L17.7902 26.9161L15.4266 25.5031L15.722 24.09L16.6084 23.2422L18.3811 23.5248L19.2675 18.4379L21.6311 15.0466Z" fill="#121212"/>
<path d="M26.0171 15.0132C29.6501 15.0144 32.6762 17.91 32.6806 21.3965C32.6817 22.2131 32.708 22.965 32.7561 23.6578C32.7858 24.0851 33.1571 24.4019 33.5829 24.4019C33.6456 24.4019 33.7095 24.395 33.7736 24.3806L34.9117 24.1252C34.9602 24.1143 35.0088 24.1091 35.0568 24.1091C35.3458 24.1091 35.612 24.2982 35.6769 24.5782C35.7686 24.974 35.537 25.3738 35.1365 25.5083L33.4089 26.1759C32.9728 26.3445 32.7386 26.7989 32.8614 27.2336C34.2473 32.1391 38.1185 31.6289 38.1185 32.268C38.1185 33.0706 35.2006 33.1839 34.937 33.4364C34.6734 33.6888 34.9256 34.9138 34.3366 35.151C34.2256 35.1957 34.0678 35.2112 33.8754 35.2112C33.4318 35.2112 32.8043 35.1283 32.143 35.1283C31.5694 35.1283 30.9703 35.1907 30.4436 35.4236C29.0463 36.0416 27.6991 37.1959 26.0291 37.1959C24.3591 37.1959 23.012 36.0416 21.6147 35.4236C21.0879 35.1906 20.4889 35.1283 19.9153 35.1283C19.254 35.1283 18.6264 35.2112 18.1828 35.2112C17.9906 35.2112 17.8327 35.1956 17.7217 35.151C17.1327 34.9138 17.3848 33.6888 17.1212 33.4364C16.8576 33.1839 13.9397 33.0705 13.9397 32.268C13.9397 31.6288 17.8109 32.139 19.1969 27.2336C19.3197 26.7989 19.0855 26.3445 18.6493 26.1759L16.9217 25.5082C16.5211 25.3737 16.2895 24.9739 16.3813 24.5782C16.4462 24.2981 16.7124 24.109 17.0014 24.1091C17.0494 24.1091 17.0981 24.1143 17.1465 24.1252L18.2846 24.3806C18.3487 24.395 18.4126 24.4018 18.4753 24.4018C18.901 24.4018 19.2724 24.085 19.3021 23.6577C19.3502 22.965 19.3766 22.213 19.3776 21.3964C19.382 17.91 22.3841 15.0144 26.0171 15.0132ZM26.0176 13.6299H26.0165C24.9321 13.6302 23.8758 13.8388 22.8769 14.2499C21.9181 14.6445 21.0552 15.2072 20.3122 15.9222C19.5701 16.6364 18.9862 17.4654 18.5765 18.3864C18.1505 19.344 17.9339 20.3562 17.9326 21.3947C17.9319 21.9046 17.9209 22.3995 17.8996 22.8734L17.4762 22.7783C17.3209 22.7434 17.1611 22.7257 17.0015 22.7257C16.5407 22.7256 16.0861 22.8747 15.7216 23.1455C15.3412 23.4281 15.0745 23.8304 14.9706 24.2784C14.7234 25.3449 15.3385 26.4215 16.4044 26.8001L17.6723 27.29C16.8327 29.7571 15.2846 30.2299 14.2421 30.5483C13.9655 30.6328 13.7266 30.7058 13.4991 30.8139C12.5927 31.2446 12.4948 31.9743 12.4948 32.268C12.4948 32.8306 12.7729 33.3439 13.278 33.7135C13.5295 33.8976 13.841 34.0494 14.2303 34.1777C14.761 34.3526 15.3761 34.4636 15.8761 34.5526C15.9002 34.7299 15.9356 34.9204 15.9953 35.1124C16.2432 35.9099 16.7664 36.2669 17.1616 36.426C17.5366 36.577 17.924 36.5944 18.1828 36.5944C18.436 36.5944 18.7036 36.5755 18.9869 36.5554C19.2909 36.5338 19.6052 36.5116 19.9153 36.5116C20.3958 36.5116 20.7535 36.5664 21.0088 36.6793C21.3593 36.8344 21.7311 37.0434 22.1247 37.2647C23.2204 37.8808 24.4623 38.5791 26.0291 38.5791C27.596 38.5791 28.8378 37.8808 29.9336 37.2647C30.3271 37.0434 30.6989 36.8344 31.0495 36.6793C31.3048 36.5664 31.6625 36.5116 32.143 36.5116C32.4531 36.5116 32.7674 36.5338 33.0713 36.5554C33.3546 36.5755 33.6222 36.5944 33.8754 36.5944C34.1342 36.5944 34.5216 36.577 34.8966 36.426C35.2919 36.2669 35.815 35.9099 36.0629 35.1124C36.1226 34.9204 36.1581 34.7299 36.1822 34.5526C36.6821 34.4636 37.2973 34.3526 37.8279 34.1777C38.2172 34.0494 38.5287 33.8976 38.7802 33.7135C39.2852 33.3439 39.5634 32.8306 39.5634 32.268C39.5634 31.9743 39.4655 31.2446 38.559 30.8139C38.3315 30.7059 38.0926 30.6329 37.816 30.5484C36.7735 30.23 35.2254 29.7572 34.3858 27.2901L35.6537 26.8001C36.7196 26.4215 37.3347 25.3449 37.0875 24.2784C36.9836 23.8304 36.7169 23.4281 36.3365 23.1455C35.9719 22.8748 35.5175 22.7257 35.0568 22.7257C34.8972 22.7257 34.7375 22.7434 34.582 22.7782L34.1585 22.8733C34.1372 22.3995 34.1262 21.9046 34.1256 21.3947C34.1242 20.3553 33.9059 19.3422 33.4765 18.3832C33.0644 17.4627 32.4772 16.6339 31.7314 15.9197C30.9856 15.2056 30.1203 14.6435 29.1595 14.2493C28.1588 13.8387 27.1017 13.6303 26.0176 13.6299Z" fill="white"/>
</svg>
