<svg width="52" height="52" viewBox="0 0 52 52" fill="none" xmlns="http://www.w3.org/2000/svg">
<path d="M34.4536 18.2116C33.0531 17.2985 32.0423 15.8374 31.7269 14.1342C31.6588 13.7662 31.6214 13.3875 31.6214 13H27.1515L27.1443 30.9139C27.0692 32.92 25.4181 34.5301 23.3941 34.5301C22.765 34.5301 22.1726 34.3728 21.6511 34.0983C20.4551 33.469 19.6366 32.2153 19.6366 30.7727C19.6366 28.7008 21.3223 27.0151 23.3941 27.0151C23.7808 27.0151 24.1518 27.0789 24.5027 27.1888V22.6255C24.1396 22.5761 23.7706 22.5452 23.3941 22.5452C18.8574 22.5452 15.1667 26.236 15.1667 30.7727C15.1667 33.5561 16.5574 36.0194 18.679 37.5089C20.0154 38.4471 21.6409 39 23.3941 39C27.9307 39 31.6214 35.3093 31.6214 30.7727V21.6888C33.3746 22.9471 35.5225 23.6886 37.8402 23.6886V19.2187C36.5917 19.2187 35.4289 18.8475 34.4536 18.2116" fill="#121212"/>
</svg>
