<svg width="40" height="40" viewBox="0 0 40 40" fill="none" xmlns="http://www.w3.org/2000/svg">
<path d="M14.0478 36.6668H6.90493C4.9332 36.6668 3.3335 35.0671 3.3335 33.0954V6.90493C3.3335 4.9332 4.9332 3.3335 6.90493 3.3335H14.0478C16.0195 3.3335 17.6192 4.9332 17.6192 6.90493V33.0954C17.6192 35.0671 16.0195 36.6668 14.0478 36.6668ZM36.6668 33.0954V6.90493C36.6668 4.9332 35.0671 3.3335 33.0954 3.3335H25.9525C23.9808 3.3335 22.3811 4.9332 22.3811 6.90493V33.0954C22.3811 35.0671 23.9808 36.6668 25.9525 36.6668H33.0954C35.0671 36.6668 36.6668 35.0671 36.6668 33.0954Z" fill="white"/>
</svg>
