<?xml version="1.0" encoding="UTF-8"?><svg id="Layer_1" xmlns="http://www.w3.org/2000/svg" width="2036.17" height="2036.168" viewBox="0 0 2036.17 2036.168"><defs><style>.cls-1{fill:none;}</style></defs><circle class="cls-1" cx="1018.084" cy="1018.084" r="815.794"/><path d="M362.499,488.772c10.616-3.136,23.42-10.154,33.113-20.942,14.377-16.003,14.327-32.946,2.1-43.931-11.328-10.177-23.617-9.52-44.61,1.189-24.783,13.479-46.017,16.498-63.099,1.151-18.88-16.962-18.851-45.206,2.312-68.761,11.146-12.407,22.101-18.813,30.004-21.461l8.889,15.785c-5.711,2.017-16.577,6.878-26.432,17.846-14.862,16.542-10.626,31.721-2.355,39.152,11.328,10.177,23.526,7.813,45.022-3.094,26.328-13.39,45.587-14.934,63.388,1.059,18.7,16.801,22.444,45.185-3.242,73.775-10.5,11.688-25.386,21.385-35.518,23.981l-9.572-15.749Z"/><path d="M544.831,344.137c-3.518,7.9-13.009,20.713-28.318,33.303-35.471,29.171-80.592,28.724-114.523-12.535-32.396-39.392-27.654-88.044,11.364-120.132,15.682-12.897,28.34-17.674,34.477-18.965l6.98,16.479c-8.618,2.08-19.234,7.055-29.689,15.653-29.498,24.258-33.593,59.235-6.417,92.279,25.333,30.804,59.343,36.008,89.96,10.828,9.895-8.137,18.287-18.482,22.211-27.029l13.954,10.118Z"/><path d="M484.095,199.043c8.071-7.26,20.591-16.011,33.098-23.353,19.386-11.379,33.973-15.177,47.377-12.396,10.758,2.093,20.348,9.357,26.71,20.197,10.89,18.552,6.437,37.703-5.427,51.393l.367.625c13.042-2.611,25.377,3.602,37.278,16.235,16.088,16.903,27.376,28.494,33.476,32.201l-18.761,11.013c-4.618-2.615-14.841-12.87-29.08-28.055-15.549-16.938-27.335-19.829-44.17-10.788l-17.093,10.034,35.729,60.867-18.135,10.646-81.37-138.62ZM539.794,252.393l18.552-10.89c19.386-11.379,25.444-29.23,16.022-45.28-10.646-18.135-28.428-18.348-47.728-7.299-8.755,5.139-14.519,9.644-16.948,12.19l30.101,51.279Z"/><path d="M774.433,149.36c19.548,52.562-2.034,92.311-41.002,106.803-40.328,14.998-80.276-5.735-97.465-51.954-18.032-48.484.305-91.41,41.086-106.576,41.688-15.504,80.529,6.415,97.381,51.727ZM656.867,195.919c12.133,32.625,40.674,55.28,71.713,43.736,31.266-11.627,38.237-46.973,25.345-81.637-11.291-30.359-38.946-56.18-71.798-43.962-32.625,12.133-37.731,48.333-25.261,81.864Z"/><path d="M793.38,64.539l20.647-3.993,27.585,142.629,68.348-13.219,3.351,17.324-88.995,17.212-30.936-159.954Z"/><path d="M922.032,43.271l20.995-1.219,8.418,145.032,69.5-4.034,1.023,17.616-90.494,5.253-9.441-162.648Z"/><path d="M1113.793,44.202c12.955.138,28.22,1.139,44.685,3.804,29.827,4.827,49.944,15.185,61.898,30.587,12.193,15.441,17.532,35.405,13.322,61.414-4.248,26.248-15.837,46.411-33.264,58.771-17.466,12.6-43.596,16.696-74.854,11.637-14.794-2.395-27.086-5.119-37.393-8.011l25.605-158.203ZM1111.535,189.778c5.095,1.804,12.692,3.278,20.805,4.592,44.383,7.183,72.5-13.732,79.528-57.161,6.38-37.901-11.195-65.478-55.101-72.584-10.738-1.738-19.006-2.096-24.687-1.792l-20.546,126.944Z"/><path d="M1398.575,200.01c-19.386,52.623-61.645,68.74-100.658,54.368-40.374-14.873-57.196-56.619-40.15-102.891,17.881-48.54,59.746-69.182,100.574-54.142,41.735,15.375,56.945,57.299,40.234,102.664ZM1279.028,158.805c-12.032,32.663-5.119,68.44,25.955,79.887,31.302,11.531,59.605-10.758,72.39-45.462,11.196-30.394,7.018-67.998-25.872-80.114-32.662-12.032-60.106,12.119-72.473,45.688Z"/><path d="M1409.764,300.005l53.184-159.442,18.717,12.008-28.232,79.817c-6.896,19.7-14.197,39.139-20.24,53.929l.407.261c10.983-12.195,25.697-25.729,41.732-40.427l62.688-57.424,18.514,11.877-27.956,80.281c-6.577,18.756-13.356,37.381-20.59,53.13l.407.261c12.507-13.228,26.162-26.006,41.398-40.354l62.484-57.555,18.106,11.617-126.831,112.192-18.514-11.877,28.521-82.504c6.952-20.237,12.719-35.492,19.764-50.501l-.407-.261c-11.187,12.064-22.853,23.534-39.294,37.971l-65.345,58.879-18.514-11.878Z"/><path d="M1549.455,396.066l114.784-115.607,16.295,16.179-21.024,95.275c-4.878,22.065-10.28,40.885-16.542,58.17l.514.169c13.955-16.799,27.576-31.205,45.458-49.215l48.026-48.37,14.064,13.965-114.784,115.607-15.095-14.987,21.538-95.106c4.711-20.869,10.105-41.74,16.706-60.051l-.685-.339c-13.618,15.431-27.07,29.665-46.144,48.875l-49.048,49.399-14.064-13.965Z"/><path d="M1800.845,705.688c-2.463,10.791-2.612,25.391,2.05,39.124,6.915,20.371,21.713,28.621,37.276,23.337,14.42-4.895,19.862-15.932,20.803-39.479.38-28.208,8.143-48.2,29.887-55.582,24.032-8.158,48.645,5.694,58.823,35.678,5.361,15.793,5.584,28.48,4.023,36.667l-18.115.023c1.037-5.968,2.119-17.822-2.621-31.783-7.147-21.057-22.456-24.795-32.984-21.221-14.42,4.895-18.329,16.688-19.343,40.771-1.214,29.511-9.296,47.06-31.955,54.752-23.804,8.08-50.386-2.551-62.739-38.943-5.051-14.877-6.219-32.604-3.522-42.709l18.418-.636Z"/><path d="M1837.454,935.459c-5.154-6.944-11.654-21.506-15.103-41.025-7.99-45.227,14.561-84.313,67.167-93.606,50.226-8.874,90.278,19.152,99.067,68.902,3.532,19.995,1.477,33.368-.413,39.348l-17.783-2.013c2.421-8.528,3.301-20.22.945-33.55-6.644-37.61-35.102-58.356-77.234-50.913-39.275,6.939-60.513,34.01-53.616,73.048,2.229,12.616,7.118,25.007,12.637,32.624l-15.667,7.187Z"/><path d="M1918.22,1088.249c-56.071.91-86.351-32.686-87.025-74.255-.698-43.02,32.164-73.771,81.468-74.571,51.721-.839,86.077,30.755,86.783,74.259.722,44.47-32.889,73.783-81.226,74.567ZM1913.51,961.892c-34.802.564-65.674,19.922-65.137,53.032.542,33.353,31.541,51.706,68.519,51.106,32.386-.525,65.947-17.993,65.379-53.037-.564-34.802-32.991-51.682-68.761-51.102Z"/><path d="M1988.486,1137.621c.353,10.851-1.021,26.065-3.465,40.361-3.788,22.158-10.282,35.762-21.047,44.222-8.532,6.879-20.267,9.533-32.656,7.415-21.206-3.624-32.982-19.37-35.81-37.265l-.715-.122c-6.406,11.657-19.105,17.088-36.436,18.05-23.293,1.413-39.433,2.578-46.197,4.855l3.665-21.444c4.976-1.847,19.405-3.059,40.193-4.165,22.974-.978,32.779-8.13,36.711-26.831l3.34-19.537-69.574-11.893,3.544-20.729,158.446,27.082ZM1911.796,1145.848l-3.625,21.206c-3.787,22.158,5.962,38.293,24.308,41.429,20.729,3.544,32.35-9.92,36.334-31.8,1.711-10.007,1.979-17.317,1.597-20.816l-58.613-10.019Z"/><path d="M1961.371,1282.667l-6.471,20.01-138.228-44.697-21.419,66.239-16.789-5.429,27.889-86.249,155.018,50.126Z"/><path d="M1917.836,1405.682l-9.087,18.965-131.01-62.772-30.081,62.78-15.913-7.624,39.168-81.745,146.923,70.396Z"/><path d="M1823.967,1573.203c-6.408,11.26-14.693,24.119-25.014,37.22-18.698,23.733-37.517,36.293-56.785,39.269-19.417,3.164-39.462-1.857-60.157-18.162-20.886-16.454-32.888-36.372-35.235-57.607-2.538-21.385,6.563-46.217,26.158-71.089,9.274-11.771,17.622-21.196,25.153-28.803l125.88,99.173ZM1697.794,1500.571c-4.05,3.578-9.026,9.505-14.112,15.96-27.822,35.314-23.185,70.048,11.371,97.271,30.039,23.974,62.678,21.993,90.201-12.941,6.731-8.544,11.058-15.598,13.549-20.713l-101.009-79.577Z"/><path d="M1549.847,1746.737c-36.696-42.406-30.378-87.191,1.061-114.396,32.536-28.155,77.212-22.702,109.479,14.586,33.85,39.116,31.684,85.742-1.218,114.214-33.633,29.104-77.687,22.153-109.321-14.403ZM1643.703,1662.002c-22.776-26.321-57.438-37.562-82.479-15.893-25.225,21.827-19.394,57.379,4.807,85.345,21.195,24.493,56.135,39.011,82.639,16.076,26.32-22.777,18.444-58.476-4.966-85.528Z"/><path d="M1456.903,1708.311l114.021,123.49-19.547,10.604-56.303-63.229c-13.932-15.541-27.438-31.313-37.479-43.74l-.425.23c5.386,15.503,10.145,34.92,15.286,56.056l20.068,82.611-19.334,10.489-56.843-63.211c-13.258-14.807-26.304-29.729-36.612-43.661l-.425.23c5.556,17.336,10.163,35.461,15.384,55.729l20.281,82.496-18.909,10.258-37.108-165.216,19.334-10.489,58.518,64.777c14.375,15.852,24.956,28.261,34.707,41.671l.425-.231c-5.174-15.618-9.594-31.369-14.311-52.735l-20.062-85.64,19.334-10.489Z"/><path d="M1305.451,1784.289l45.581,156.416-22.047,6.425-73.188-64.529c-16.945-14.952-30.798-28.792-42.891-42.641l-.396.367c7.943,20.346,13.952,39.24,21.054,63.607l19.07,65.444-19.029,5.545-45.581-156.415,20.423-5.951,72.791,64.896c15.979,14.227,31.63,29.053,44.457,43.695l.629-.436c-6.909-19.388-12.851-38.05-20.425-64.042l-19.477-66.836,19.029-5.546Z"/><path d="M912.759,1854.137c-8.262-7.366-20.977-14.545-35.254-17.092-21.178-3.778-35.547,5.198-38.434,21.38-2.674,14.991,4.364,25.086,24.533,37.277,24.52,13.95,38.282,30.4,34.249,53.007-4.457,24.986-28.471,39.854-59.644,34.293-16.419-2.93-27.638-8.859-34.056-14.178l8.725-15.877c4.726,3.79,14.585,10.459,29.101,13.049,21.893,3.905,32.556-7.697,34.508-18.644,2.675-14.991-5.766-24.108-26.368-36.623-25.26-15.31-36.727-30.859-32.524-54.417,4.415-24.748,26.558-42.896,64.394-36.146,15.467,2.759,31.556,10.294,39.104,17.533l-8.334,16.438Z"/><path d="M693.859,1775.273c8.569-1.161,24.458.178,43.215,6.581,43.461,14.838,66.801,53.455,49.542,104.008-16.478,48.265-60.356,69.808-108.164,53.486-19.214-6.561-29.932-14.816-34.256-19.357l10.348-14.602c6.299,6.237,16.113,12.652,28.923,17.026,36.142,12.339,68.047-2.564,81.87-43.053,12.886-37.742-.567-69.408-38.081-82.216-12.124-4.139-25.335-5.84-34.668-4.685l1.271-17.189Z"/><path d="M602.251,1903.103c-10.415-3.062-24.434-9.131-37.246-15.927-19.858-10.533-30.745-20.959-35.409-33.831-3.862-10.257-2.709-22.231,3.181-33.335,10.081-19.004,28.721-25.26,46.6-22.343l.34-.641c-9.065-9.733-10.248-23.494-5.735-40.253,5.949-22.564,9.895-38.256,9.851-45.394l19.218,10.194c.197,5.303-3.169,19.387-8.627,39.476-6.263,22.123-2.54,33.675,13.989,43.263l17.509,9.288,33.074-62.351,18.577,9.854-75.322,141.999ZM618.447,1827.693l-19.004-10.08c-19.858-10.534-38.233-6.326-46.955,10.115-9.854,18.577-.706,33.827,18.826,44.462,8.968,4.757,15.828,7.301,19.27,8.032l27.863-52.529Z"/><path d="M407.589,1682.09c34.452-44.247,79.608-46.767,112.412-21.225,33.948,26.433,37.295,71.313,7.001,110.221-31.779,40.814-77.934,47.765-112.264,21.035-35.092-27.324-36.85-71.887-7.15-110.031ZM508.969,1757.657c21.384-27.464,25.664-63.649-.465-83.994-26.319-20.492-60.055-7.854-82.775,21.326-19.899,25.557-27.338,62.652.316,84.185,27.464,21.384,60.946,6.71,82.924-21.517Z"/><path d="M325.597,1710.771l-14.276-15.44,106.663-98.619-47.259-51.113,12.956-11.979,61.535,66.553-119.618,110.599Z"/><path d="M239.727,1612.735l-12.11-17.193,118.768-83.653-40.087-56.913,14.426-10.161,52.196,74.106-133.193,93.814Z"/><path d="M139.347,1448.98c-6.689-11.096-13.856-24.609-20.239-40.018-11.562-27.914-13.318-50.472-6.494-68.734,6.732-18.486,20.913-33.518,45.254-43.6,24.564-10.175,47.808-10.907,67.48-2.573,19.896,8.241,37.108,28.32,49.226,57.574,5.735,13.846,9.875,25.735,12.828,36.023l-148.056,61.327ZM264.394,1374.423c-1.142-5.283-3.878-12.521-7.023-20.114-17.205-41.536-49.771-54.471-90.415-37.636-35.599,14.484-49.829,43.925-32.809,85.014,4.163,10.05,8.201,17.272,11.445,21.945l118.802-49.209Z"/><path d="M122.321,1124.818c54.959-11.147,90.872,16.344,99.137,57.09,8.553,42.167-18.132,78.409-66.458,88.211-50.695,10.283-90.251-14.497-98.9-57.138-8.841-43.588,18.843-78.553,66.221-88.163ZM150.058,1248.185c34.112-6.919,60.924-31.595,54.341-64.05-6.631-32.69-40.464-45.066-76.709-37.715-31.744,6.439-61.545,29.748-54.578,64.098,6.919,34.113,41.885,44.778,76.946,37.667Z"/><path d="M201.457,1062.804l-163.565,38.685.36-22.235,82.728-17.997c20.38-4.504,40.752-8.524,56.509-11.171l.008-.482c-16.15-2.922-35.402-8.311-56.338-14.211l-81.82-23.084.357-21.994,82.978-18.477c19.409-4.278,38.814-8.315,56.013-10.453l.008-.483c-17.83-3.674-35.881-8.56-56.101-13.965l-81.824-22.843.349-21.51,162.146,48.805-.357,21.993-85.164,19.167c-20.867,4.737-36.874,7.862-53.343,9.771l-.008.483c16.146,3.163,32.038,7.047,52.967,13.431l84.455,24.578-.357,21.993Z"/><path d="M209.438,893.355l-158.74-36.664,5.168-22.375,92.062-32.322c21.326-7.479,40.169-12.802,58.161-16.585l-.126-.525c-21.632-3.012-41.054-7.001-65.783-12.713l-66.417-15.34,4.461-19.312,158.74,36.664-4.787,20.726-92.189,31.797c-20.221,6.989-40.803,13.399-59.846,17.436l.072.761c20.291,3.446,39.477,7.381,65.855,13.474l67.83,15.667-4.46,19.312Z"/><circle cx="217.937" cy="598.857" r="44.782"/><circle cx="1062.866" cy="1917.508" r="44.782"/><circle cx="1799.887" cy="553.535" r="44.782"/></svg>